<?xml version="1.0" encoding="UTF-8"?>
<svg xmlns="http://www.w3.org/2000/svg" version="1.1" xmlns:inkscape="http://www.inkscape.org/namespaces/inkscape" xmlns:sodipodi="http://sodipodi.sourceforge.net/DTD/sodipodi-0.dtd" xmlns:svg="http://www.w3.org/2000/svg" xmlns:xlink="http://www.w3.org/1999/xlink" viewBox="0 0 600 600">
  <defs>
    <style>
      .cls-1 {
        fill: url(#_未命名的渐变_8);
      }

      .cls-2 {
        fill: #fff;
      }

      .cls-3 {
        fill: #32a19f;
        font-family: Arial-BoldMT, Arial;
        font-size: 21.3px;
        font-weight: 700;
      }

      .cls-3, .cls-4, .cls-5, .cls-6, .cls-7 {
        isolation: isolate;
      }

      .cls-4 {
        fill: url(#_未命名的渐变_7-2);
      }

      .cls-8 {
        fill: url(#_未命名的渐变_6);
      }

      .cls-9 {
        fill: url(#_未命名的渐变_7);
      }

      .cls-10 {
        fill: url(#_未命名的渐变_3);
      }

      .cls-11 {
        fill: url(#_未命名的渐变);
      }

      .cls-12 {
        fill: #1a1a1a;
      }

      .cls-6 {
        fill: url(#_未命名的渐变_5);
      }

      .cls-7 {
        fill: url(#_未命名的渐变_2);
      }
    </style>
    <linearGradient id="_未命名的渐变" data-name="未命名的渐变" x1="-636.1" y1="865.5" x2="-635.4" y2="866.2" gradientTransform="translate(16566.5 22610.9) scale(26 -26)" gradientUnits="userSpaceOnUse">
      <stop offset="0" stop-color="#0071ff"/>
      <stop offset="1" stop-color="#00bfe1"/>
    </linearGradient>
    <linearGradient id="_未命名的渐变_2" data-name="未命名的渐变 2" x1="-640.5" y1="860.6" x2="-639.5" y2="861.5" gradientTransform="translate(20516.4 27615.4) scale(32 -32)" gradientUnits="userSpaceOnUse">
      <stop offset="0" stop-color="#0071ff"/>
      <stop offset="1" stop-color="#00bfe1"/>
    </linearGradient>
    <linearGradient id="_未命名的渐变_3" data-name="未命名的渐变 3" x1="-636.1" y1="865.5" x2="-635.4" y2="866.2" gradientTransform="translate(16566.5 22610.9) scale(26 -26)" gradientUnits="userSpaceOnUse">
      <stop offset="0" stop-color="#0071ff"/>
      <stop offset="1" stop-color="#00bfe1"/>
    </linearGradient>
    <linearGradient id="_未命名的渐变_5" data-name="未命名的渐变 5" x1="-640.5" y1="860.6" x2="-639.5" y2="861.5" gradientTransform="translate(20611.5 27617.7) scale(32 -32)" gradientUnits="userSpaceOnUse">
      <stop offset="0" stop-color="#0071ff"/>
      <stop offset="1" stop-color="#01aee6"/>
    </linearGradient>
    <linearGradient id="_未命名的渐变_6" data-name="未命名的渐变 6" x1="-631.9" y1="870.1" x2="-631.2" y2="870.8" gradientTransform="translate(13851.7 19231.7) scale(22 -22)" gradientUnits="userSpaceOnUse">
      <stop offset="0" stop-color="#0071ff"/>
      <stop offset="1" stop-color="#00bfe1"/>
    </linearGradient>
    <linearGradient id="_未命名的渐变_7" data-name="未命名的渐变 7" x1="-636.1" y1="865.5" x2="-635.4" y2="866.2" gradientTransform="translate(16443.4 22534) scale(26 -26)" gradientUnits="userSpaceOnUse">
      <stop offset="0" stop-color="#0071ff"/>
      <stop offset="1" stop-color="#00bfe1"/>
    </linearGradient>
    <linearGradient id="_未命名的渐变_7-2" data-name="未命名的渐变 7" x1="-635" y1="901.2" x2="-635" y2="901.2" xlink:href="#_未命名的渐变_7"/>
    <linearGradient id="_未命名的渐变_8" data-name="未命名的渐变 8" x1="-636.1" y1="865.5" x2="-635.4" y2="866.2" gradientTransform="translate(16437.2 22582.2) scale(26 -26)" gradientUnits="userSpaceOnUse">
      <stop offset="0" stop-color="#0071ff"/>
      <stop offset="1" stop-color="#00bfe1"/>
    </linearGradient>
  </defs>
  <!-- Generator: Adobe Illustrator 28.7.1, SVG Export Plug-In . SVG Version: 1.2.0 Build 142)  -->
  <g>
    <g id="svg11" inkscape:export-filename="216333102-4d10c195-be66-4fa0-97ca-70a71756b25e.png">
      <sodipodi:namedview id="namedview13" bordercolor="#000000" borderopacity="0.25" inkscape:current-layer="svg11" inkscape:cx="11.119001" inkscape:cy="90.307984" inkscape:deskcolor="#d1d1d1" inkscape:pagecheckerboard="0" inkscape:pageopacity="0.0" inkscape:showpageshadow="2" inkscape:window-height="847" inkscape:window-maximized="1" inkscape:window-width="1440" inkscape:window-x="0" inkscape:window-y="25" inkscape:zoom="1.8436908" pagecolor="#ffffff" showgrid="false" showguides="true"/>
      <path id="path5412" class="cls-11" d="M46.5,93l-2.1,2.1c-.4.3-.6.9-.3,1.3,1.4,3,.9,6.5-1.5,8.9-2.3,2.3-5.9,2.9-8.9,1.4-.4-.2-1,0-1.3.3l-2.2,2.2c-.3.2-.4.6-.3,1,0,.4.2.7.5.9,5.1,3.1,11.7,2.3,15.9-1.9,4.2-4.2,5-10.8,2-15.9-.2-.3-.5-.5-.8-.6-.4,0-.7,0-1,.3h0ZM28,90.7c-4.3,4.2-5.1,10.8-2,15.9.2.3.5.5.8.6.4,0,.7,0,1-.3l2.1-2.1c.4-.3.6-.9.4-1.3-1.4-3-.9-6.5,1.5-8.9,2.3-2.3,5.9-2.9,8.9-1.4.4.2.9,0,1.3-.3l2.2-2.2c.3-.2.4-.6.3-1,0-.4-.2-.7-.5-.9-5.1-3.1-11.7-2.3-15.9,2h0Z" inkscape:export-filename="../../Desktop/path9.png" inkscape:export-xdpi="3733.2917" inkscape:export-ydpi="3733.2917" sodipodi:nodetypes="ccccccccccccccccccccccccccc"/>
      <g id="g9521">
        <g id="g3226">
          <path id="path422" class="cls-7" d="M47.4,76.9h-22c-2.8,0-5-2.2-5-5v-22c0-2.8,2.2-5,5-5h22c2.8,0,5,2.2,5,5v22c0,2.8-2.2,5-5,5Z"/>
        </g>
        <path id="path9011" class="cls-2" d="M44.3,55.1l-1.8,1.8c-.3.3-.5.7-.3,1.1,1.2,2.5.7,5.5-1.2,7.5-2,2-5,2.4-7.5,1.2-.4-.2-.8,0-1.1.3l-1.8,1.8c-.2.2-.3.5-.3.8,0,.3.2.6.5.7,4.3,2.6,9.9,2,13.5-1.6,3.6-3.6,4.3-9.1,1.7-13.4-.1-.3-.4-.4-.7-.5-.3,0-.6,0-.8.3ZM28.7,53.1c-3.6,3.6-4.3,9.1-1.7,13.4.1.3.4.4.7.5.3,0,.6,0,.8-.3l1.8-1.8c.3-.3.5-.7.3-1.1-1.2-2.5-.7-5.5,1.2-7.5,2-2,5-2.4,7.5-1.2.4.2.8,0,1.1-.3l1.8-1.8c.2-.2.3-.5.3-.8,0-.3-.2-.6-.5-.7-4.3-2.6-9.9-1.9-13.4,1.7h0Z" inkscape:export-filename="../../Desktop/path9.png" inkscape:export-xdpi="3733.2917" inkscape:export-ydpi="3733.2917" sodipodi:nodetypes="ccccccccccccccccccccccccccc"/>
      </g>
      <path id="path9523" class="cls-10" d="M46.5,93l-2.1,2.1c-.4.3-.6.9-.3,1.3,1.4,3,.9,6.5-1.5,8.9-2.3,2.3-5.9,2.9-8.9,1.4-.4-.2-1,0-1.3.3l-2.2,2.2c-.3.2-.4.6-.3,1,0,.4.2.7.5.9,5.1,3.1,11.7,2.3,15.9-1.9,4.2-4.2,5-10.8,2-15.9-.2-.3-.5-.5-.8-.6-.4,0-.7,0-1,.3h0ZM28,90.7c-4.3,4.2-5.1,10.8-2,15.9.2.3.5.5.8.6.4,0,.7,0,1-.3l2.1-2.1c.4-.3.6-.9.4-1.3-1.4-3-.9-6.5,1.5-8.9,2.3-2.3,5.9-2.9,8.9-1.4.4.2.9,0,1.3-.3l2.2-2.2c.3-.2.4-.6.3-1,0-.4-.2-.7-.5-.9-5.1-3.1-11.7-2.3-15.9,2h0Z" inkscape:export-filename="../../Desktop/path9.png" inkscape:export-xdpi="2599.3848" inkscape:export-ydpi="2599.3848" sodipodi:nodetypes="ccccccccccccccccccccccccccc"/>
      <g id="g9767">
        <g id="g9763">
          <path id="path9761" class="cls-6" d="M142.5,79.2h-22c-2.8,0-5-2.2-5-5v-22c0-2.8,2.2-5,5-5h22c2.8,0,5,2.2,5,5v22c0,2.8-2.2,5-5,5Z"/>
        </g>
        <path id="path9765" class="cls-2" d="M139.4,57.3l-1.8,1.8c-.3.3-.5.7-.3,1.1,1.2,2.5.7,5.5-1.2,7.5-2,2-5,2.4-7.5,1.2-.4-.2-.8,0-1.1.3l-1.8,1.8c-.2.2-.3.5-.3.8,0,.3.2.6.5.7,4.3,2.6,9.9,2,13.5-1.6,3.6-3.6,4.3-9.1,1.7-13.4-.1-.3-.4-.4-.7-.5-.3,0-.6,0-.8.3ZM123.7,55.4c-3.6,3.6-4.3,9.1-1.7,13.4.1.3.4.4.7.5.3,0,.6,0,.8-.3l1.8-1.8c.3-.3.5-.7.3-1.1-1.2-2.5-.7-5.5,1.2-7.5,2-2,5-2.4,7.5-1.2.4.2.8,0,1.1-.3l1.8-1.8c.2-.2.3-.5.3-.8,0-.3-.2-.6-.5-.7-4.3-2.6-9.9-1.9-13.4,1.7h0Z" inkscape:export-filename="../../Desktop/path9.png" inkscape:export-xdpi="3733.2917" inkscape:export-ydpi="3733.2917" sodipodi:nodetypes="ccccccccccccccccccccccccccc"/>
      </g>
      <g id="g9889" inkscape:export-filename="../../Desktop/path9.png" inkscape:export-xdpi="888" inkscape:export-ydpi="888">
        <rect id="rect9885" class="cls-2" x="-59.6" y="66.7" width="32" height="32"/>
        <path id="path9829" class="cls-8" d="M-35.7,76.9l-1.8,1.8c-.3.3-.5.7-.3,1.1,1.2,2.5.7,5.5-1.2,7.5-2,2-5,2.4-7.5,1.2-.4-.2-.8,0-1.1.3l-1.8,1.8c-.2.2-.3.5-.3.8,0,.3.2.6.5.7,4.3,2.6,9.9,2,13.5-1.6,3.6-3.6,4.3-9.1,1.7-13.4-.1-.3-.4-.4-.7-.5-.3,0-.6,0-.8.3ZM-51.3,74.9c-3.6,3.6-4.3,9.1-1.7,13.4.1.3.4.4.7.5.3,0,.6,0,.8-.3l1.8-1.8c.3-.3.5-.7.3-1.1-1.2-2.5-.7-5.5,1.2-7.5,2-2,5-2.4,7.5-1.2.4.2.8,0,1.1-.3l1.8-1.8c.2-.2.3-.5.3-.8,0-.3-.2-.6-.5-.7-4.3-2.6-9.9-1.9-13.4,1.7h0Z" inkscape:export-filename="../../Desktop/path9.png" inkscape:export-xdpi="2599.3848" inkscape:export-ydpi="2599.3848" sodipodi:nodetypes="ccccccccccccccccccccccccccc"/>
      </g>
      <path id="path357" class="cls-12" d="M47,132l-2.1,2.1c-.4.3-.6.9-.3,1.3,1.4,3,.9,6.5-1.5,8.9-2.3,2.3-5.9,2.9-8.9,1.4-.4-.2-1,0-1.3.3l-2.2,2.2c-.3.2-.4.6-.3,1,0,.4.2.7.5.9,5.1,3.1,11.7,2.3,15.9-1.9,4.2-4.2,5-10.8,2-15.9-.2-.3-.5-.5-.8-.6-.4,0-.7,0-1,.3h0ZM28.5,129.7c-4.3,4.2-5.1,10.8-2,15.9.2.3.5.5.8.6.4,0,.7,0,1-.3l2.1-2.1c.4-.3.6-.9.4-1.3-1.4-3-.9-6.5,1.5-8.9,2.3-2.3,5.9-2.9,8.9-1.4.4.2.9,0,1.3-.3l2.2-2.2c.3-.2.4-.6.3-1,0-.4-.2-.7-.5-.9-5.1-3.1-11.7-2.3-15.9,2h0Z" inkscape:export-filename="../../Desktop/path9.png" inkscape:export-xdpi="59.076923" inkscape:export-ydpi="59.076923" sodipodi:nodetypes="ccccccccccccccccccccccccccc"/>
      <path id="path408" class="cls-2" d="M-32.4,121l-2.1,2.1c-.4.3-.6.9-.3,1.3,1.4,3,.9,6.5-1.5,8.9-2.3,2.3-5.9,2.9-8.9,1.4-.4-.2-1,0-1.3.3l-2.2,2.2c-.3.2-.4.6-.3,1,0,.4.2.7.5.9,5.1,3.1,11.7,2.3,15.9-1.9,4.2-4.2,5-10.8,2-15.9-.2-.3-.5-.5-.8-.6-.4,0-.7,0-1,.3ZM-50.9,118.7c-4.3,4.2-5.1,10.8-2,15.9.2.3.5.5.8.6.4,0,.7,0,1-.3l2.1-2.1c.4-.3.6-.9.4-1.3-1.4-3-.9-6.5,1.5-8.9,2.3-2.3,5.9-2.9,8.9-1.5.4.2.9,0,1.3-.3l2.2-2.2c.3-.2.4-.6.3-1,0-.4-.2-.7-.5-.9-5.1-3.1-11.7-2.3-15.9,2h0Z" inkscape:export-filename="../../Desktop/path9.png" inkscape:export-xdpi="177.23076" inkscape:export-ydpi="177.23076" sodipodi:nodetypes="ccccccccccccccccccccccccccc"/>
      <g id="g763" inkscape:export-filename="../../Desktop/path9.png" inkscape:export-xdpi="768" inkscape:export-ydpi="768">
        <g id="g761" inkscape:export-filename="./g369.png" inkscape:export-xdpi="3733.2917" inkscape:export-ydpi="3733.2917">
          <rect id="rect757" class="cls-2" x="-101.9" y="7.1" width="32" height="32" rx="-19" ry="-19"/>
          <path id="path759" class="cls-9" d="M-76.6,16.1l-2.1,2.1c-.4.3-.6.9-.3,1.3,1.4,3,.9,6.5-1.5,8.9-2.3,2.3-5.9,2.9-8.9,1.4-.4-.2-1,0-1.3.3l-2.2,2.2c-.3.2-.4.6-.3,1,0,.4.2.7.5.9,5.1,3.1,11.7,2.3,15.9-1.9,4.2-4.2,5-10.8,2-15.9-.2-.3-.5-.5-.8-.6-.4,0-.7,0-1,.3h0ZM-95.1,13.8c-4.3,4.2-5.1,10.8-2,15.9.2.3.5.5.8.6.4,0,.7,0,1-.3l2.1-2.1c.4-.3.6-.9.4-1.3-1.4-3-.9-6.5,1.5-8.9,2.3-2.3,5.9-2.9,8.9-1.4.4.2.9,0,1.3-.3l2.2-2.2c.3-.2.4-.6.3-1,0-.4-.2-.7-.5-.9-5.1-3.1-11.7-2.3-15.9,2h0Z" inkscape:export-filename="../../Desktop/path9.png" inkscape:export-xdpi="2599.3848" inkscape:export-ydpi="2599.3848" sodipodi:nodetypes="ccccccccccccccccccccccccccc"/>
        </g>
      </g>
      <path id="path2240" class="cls-4" d="M-67-897.5"/>
      <g id="g340" inkscape:export-filename="../../Desktop/path9.png" inkscape:export-xdpi="2496" inkscape:export-ydpi="2496">
        <g id="g369" inkscape:export-filename="./g369.png" inkscape:export-xdpi="3733.2917" inkscape:export-ydpi="3733.2917">
          <rect id="rect336" class="cls-2" x="-108.1" y="55.2" width="32" height="32" rx="-22" ry="-22"/>
          <path id="path338" class="cls-1" d="M-82.7,64.3l-2.1,2.1c-.4.3-.6.9-.3,1.3,1.4,3,.9,6.5-1.5,8.9-2.3,2.3-5.9,2.9-8.9,1.4-.4-.2-1,0-1.3.3l-2.2,2.2c-.3.2-.4.6-.3,1,0,.4.2.7.5.9,5.1,3.1,11.7,2.3,15.9-1.9,4.2-4.2,5-10.8,2-15.9-.2-.3-.5-.5-.8-.6-.4,0-.7,0-1,.3h0ZM-101.2,62c-4.3,4.2-5.1,10.8-2,15.9.2.3.5.5.8.6.4,0,.7,0,1-.3l2.1-2.1c.4-.3.6-.9.4-1.3-1.4-3-.9-6.5,1.5-8.9,2.3-2.3,5.9-2.9,8.9-1.4.4.2.9,0,1.3-.3l2.2-2.2c.3-.2.4-.6.3-1,0-.4-.2-.7-.5-.9-5.1-3.1-11.7-2.3-15.9,2h0Z" inkscape:export-filename="../../Desktop/path9.png" inkscape:export-xdpi="2599.3848" inkscape:export-ydpi="2599.3848" sodipodi:nodetypes="ccccccccccccccccccccccccccc"/>
        </g>
      </g>
      <g>
        <g id="g8359">
          <g id="text9011" class="cls-5">
            <text class="cls-3" transform="translate(48.2 25.5)"><tspan x="0" y="0">rustdesk</tspan></text>
          </g>
        </g>
        <image width="32" height="32" transform="translate(12.5 2.9)" xlink:href="32x32.png"/>
      </g>
    </g>
  </g>
</svg>