<?xml version="1.0" encoding="UTF-8"?>
<svg xmlns="http://www.w3.org/2000/svg" version="1.1" xmlns:xlink="http://www.w3.org/1999/xlink" viewBox="0 0 1000 286.6">
  <defs>
    <style>
      .cls-1 {
        fill: #fbfcfb;
      }

      .cls-1, .cls-2 {
        fill-rule: evenodd;
      }

      .cls-2 {
        fill: #38aca9;
      }

      .cls-3 {
        isolation: isolate;
      }
    </style>
  </defs>
  <!-- Generator: Adobe Illustrator 28.7.1, SVG Export Plug-In . SVG Version: 1.2.0 Build 142)  -->
  <g>
    <g id="_图层_1" data-name="图层_1">
      <g id="_图层_1-2" data-name="_图层_1">
        <path class="cls-1" d="M0,0h1000v286.6H0V0Z"/>
        <g>
          <path class="cls-2" d="M418.4,216.1c.3.5.5.9.5,1.4s-.3,1.1-.8,1.5-1,.6-1.7.6-.8-.1-1.2-.3-.7-.5-1-.9l-5.3-8c-.5-.9-1.1-1.6-1.7-1.9-.7-.3-1.5-.5-2.4-.5h-3.8v9c0,.8-.2,1.4-.7,1.9-.4.5-1,.7-1.8.7s-1.4-.2-1.9-.7-.7-1.1-.7-2v-23.2c0-.8.2-1.4.7-1.8.5-.5,1.1-.7,1.8-.7h10c3.2,0,5.6.7,7.3,2.2,1.7,1.4,2.5,3.4,2.5,6.1s-.6,4-1.9,5.4c-1.2,1.4-2.9,2.3-5.2,2.7.8.2,1.5.5,2,1,.7.5,1.3,1.1,1.8,2l3.5,5.5h0ZM407.6,204.1c2,0,3.4-.4,4.3-1.1.9-.8,1.3-1.9,1.3-3.4s-.4-2.7-1.3-3.4-2.4-1-4.3-1h-6.7v8.8h6.7ZM435.3,219.7c-3.9,0-6.8-1-8.8-3s-3-4.9-3-8.8v-14.4c0-.8.2-1.4.7-1.9.4-.5,1-.7,1.8-.7s1.4.2,1.8.7c.5.5.7,1.1.7,1.9v14.7c0,2.4.6,4.2,1.7,5.5,1.2,1.3,2.9,1.9,5,1.9s3.9-.7,5-2c1.2-1.2,1.8-3,1.8-5.4v-14.7c0-.8.2-1.4.7-1.9s1.1-.7,1.8-.7,1.4.2,1.9.7c.4.5.6,1.1.6,1.9v14.4c0,3.8-1,6.7-3,8.8-2,2-4.9,3-8.7,3ZM462.7,219.7c-2,0-3.9-.3-5.8-.8-1.8-.6-3.3-1.4-4.5-2.3-.6-.4-.9-1-.9-1.9s.2-1,.5-1.4c.3-.5.7-.7,1.2-.7s1,.2,1.6.6c1.2.8,2.4,1.4,3.6,1.8,1.3.4,2.7.6,4.2.6s3.5-.3,4.5-1,1.5-1.7,1.5-3-.5-1.9-1.4-2.4c-1-.5-2.6-1.1-4.9-1.6s-4.2-1-5.7-1.7-2.6-1.5-3.3-2.6c-.7-1-1.1-2.3-1.1-4s.5-3.1,1.4-4.4c.9-1.3,2.2-2.3,3.8-3,1.7-.7,3.6-1.1,5.7-1.1,3.8,0,6.9,1,9.3,3,.3.3.6.6.7.9.2.3.3.6.3,1,0,.6-.2,1.1-.6,1.5-.3.4-.6.6-1.1.6h-.8c0-.1-.9-.6-.9-.6-1.1-.8-2.1-1.4-3.2-1.7-1-.4-2.2-.6-3.7-.6s-3.2.4-4.3,1.1c-1.1.7-1.6,1.7-1.6,3s.5,2,1.4,2.6c.9.5,2.5,1.1,4.8,1.6s4.2,1.1,5.7,1.8,2.7,1.5,3.4,2.5c.8,1,1.2,2.3,1.2,3.8s-.5,3.1-1.4,4.4c-.9,1.3-2.2,2.3-3.9,3-1.6.7-3.5,1-5.7,1h0ZM487.1,219.5c-.8,0-1.4-.2-1.9-.7s-.7-1.1-.7-1.8v-21.6h-7.3c-1.6,0-2.4-.7-2.4-2.2s.8-2.1,2.4-2h19.8c1.6,0,2.4.7,2.4,2s-.8,2.1-2.4,2.2h-7.3v21.6c0,.7-.2,1.3-.7,1.8s-1.1.7-1.9.7ZM504.9,219.3c-.8,0-1.4-.2-1.9-.6-.4-.5-.6-1.1-.6-1.8v-23.3c0-.8.2-1.4.6-1.8.5-.5,1.1-.7,1.9-.7h8c4.5,0,8.1,1.2,10.6,3.7,2.6,2.5,3.9,5.9,3.9,10.4s-1.3,7.9-3.9,10.4c-2.5,2.5-6.1,3.7-10.7,3.7h-7.9ZM512.5,215.1c6.5,0,9.7-3.3,9.7-9.9s-3.2-9.9-9.7-9.9h-5v19.8h5ZM535,219.3c-.7,0-1.3-.2-1.8-.6-.4-.5-.6-1.1-.6-1.8v-23.3c0-.8.2-1.4.6-1.8.5-.5,1.1-.7,1.8-.7h14.5c.7,0,1.3.2,1.8.5.4.4.6.9.6,1.5s-.2,1.2-.6,1.6c-.5.3-1.1.5-1.8.5h-11.9v7.8h11c.8,0,1.4.2,1.9.5.4.3.6.8.6,1.5s-.2,1.2-.6,1.5c-.4.3-1,.5-1.8.5h-11v8.2h11.8c.7,0,1.3.2,1.8.6.4.3.6.8.6,1.5s-.2,1.2-.6,1.5c-.4.3-1,.5-1.8.5h-14.5ZM565.5,219.7c-2.1,0-4-.3-5.9-.8-1.8-.6-3.3-1.4-4.4-2.3-.7-.4-1-1-1-1.9s.2-1,.6-1.4c.3-.5.7-.7,1.2-.7s1,.2,1.6.6c1.1.8,2.3,1.4,3.6,1.8,1.3.4,2.7.6,4.2.6s3.4-.3,4.4-1c1.1-.7,1.6-1.7,1.6-3s-.5-1.9-1.5-2.4c-.9-.5-2.5-1.1-4.8-1.6s-4.2-1-5.7-1.7-2.6-1.5-3.4-2.6c-.7-1-1-2.3-1-4s.4-3.1,1.3-4.4c.9-1.3,2.2-2.3,3.9-3s3.5-1.1,5.6-1.1c3.9,0,7,1,9.4,3,.3.3.6.6.7.9,0,.3.2.6.2,1,0,.6-.2,1.1-.5,1.5s-.7.6-1.2.6h-.7c0-.1-.9-.6-.9-.6-1.1-.8-2.1-1.4-3.2-1.7-1-.4-2.3-.6-3.8-.6s-3.2.4-4.3,1.1c-1,.7-1.5,1.7-1.5,3s.5,2,1.4,2.6c.9.5,2.5,1.1,4.7,1.6,2.4.5,4.3,1.1,5.8,1.8s2.6,1.5,3.4,2.5,1.2,2.3,1.2,3.8-.5,3.1-1.4,4.4c-.9,1.3-2.2,2.3-3.9,3s-3.6,1-5.7,1h0ZM603.1,215.4c.5.5.8,1.1.8,1.8s-.2,1.1-.7,1.6-1,.7-1.6.7-1.3-.3-1.9-.9l-13.3-12.4v10.8c0,.7-.2,1.3-.7,1.8s-1.1.8-1.9.8-1.4-.3-1.9-.8-.7-1.1-.7-1.8v-23.5c0-.8.2-1.4.7-1.9s1.1-.7,1.9-.7,1.4.2,1.9.7.7,1.1.7,1.9v10.2l12.9-12.1c.5-.5,1-.7,1.6-.7s1.2.2,1.6.7c.5.5.7,1,.7,1.6s-.3,1.2-.8,1.7l-10.7,9.8,11.4,10.7h0Z"/>
          <path class="cls-2" d="M408.3,239.9c.2-.3.4-.4.7-.4s.6,0,.8.3c.2.3.3.5.3.8s0,.5-.3.7l-5.3,6.7v6.5c0,.4-.1.7-.4,1-.2.1-.5.2-.8.2s-.6-.1-.8-.3c-.2-.2-.3-.5-.3-.9v-6.5l-5.4-6.7c-.2-.2-.3-.4-.3-.7s.1-.6.3-.8c.3-.2.5-.3.8-.3s.6.1.8.4l5,6.2,4.9-6.2h0ZM414.9,255.8c-1.1,0-2-.3-2.9-.8-.8-.5-1.4-1.1-1.9-2-.4-.9-.6-1.9-.6-3s.2-2.1.6-3c.5-.9,1.1-1.5,2-2,.8-.5,1.7-.7,2.8-.7s2,.2,2.8.7c.9.5,1.5,1.1,2,2,.4.9.6,1.9.6,3s-.2,2.1-.6,3c-.5.9-1.1,1.5-2,2-.8.5-1.7.8-2.8.8ZM414.9,253.9c1,0,1.8-.3,2.3-1s.8-1.6.8-2.9-.3-2.2-.8-2.9-1.3-1-2.3-1-1.8.3-2.3,1-.8,1.7-.8,3,.3,2.1.8,2.8,1.3,1,2.3,1h0ZM431.4,244.3c.4,0,.7,0,.9.3.2.2.3.5.3.8v9.2c0,.3,0,.6-.3.8s-.6.3-.9.3-.6-.1-.8-.3c-.1-.2-.2-.4-.2-.7v-.9c-.4.7-.9,1.2-1.5,1.5-.7.3-1.3.5-2,.5-2.7,0-4-1.5-4-4.5v-5.8c0-.3,0-.6.2-.8s.5-.3.9-.3.6.1.8.3c.2.2.3.5.3.8v5.9c0,.9.2,1.5.6,2,.3.4.9.6,1.6.6s1.7-.3,2.2-.9c.5-.5.8-1.3.8-2.3v-5.3c0-.3.1-.6.3-.8.2-.2.5-.3.8-.3h0ZM441.6,244.3c.7,0,1,.3,1,1s0,.5-.2.7c-.1.1-.4.2-.9.3h-.6c-1,.1-1.7.5-2.2,1-.4.7-.6,1.4-.6,2.1v5.2c0,.4-.1.7-.4.8-.2.2-.5.3-.8.3s-.6-.1-.8-.3c-.2-.1-.3-.4-.3-.8v-9.1c0-.3.1-.6.3-.8.2-.2.5-.3.8-.3s.6.1.8.3c.2.2.3.5.3.8v1c.3-.7.7-1.2,1.3-1.5.6-.3,1.3-.5,2-.6h.3ZM455.9,244.3c.7,0,1,.3,1,1s0,.5-.2.7l-.9.3h-.7c-.9.1-1.6.5-2,1-.5.7-.8,1.4-.8,2.1v5.2c0,.4-.1.7-.3.8-.2.2-.5.3-.8.3s-.6-.1-.8-.3c-.3-.1-.4-.4-.4-.8v-9.1c0-.3.1-.6.4-.8.2-.2.5-.3.8-.3s.6.1.8.3c.2.2.3.5.3.8v1c.3-.7.7-1.2,1.3-1.5.5-.3,1.2-.5,2-.6h.3ZM466.8,252.8c.2,0,.4,0,.5.3.1.1.2.3.2.6s-.3.8-.8,1.1-1.1.6-1.8.7c-.6.2-1.2.3-1.7.3-1.8,0-3.2-.5-4.2-1.6-1-1-1.5-2.4-1.5-4.2s.2-2.1.6-3c.5-.9,1.1-1.5,2-2,.7-.5,1.6-.7,2.7-.7s2.6.5,3.5,1.4,1.3,2.2,1.3,3.8-.3,1-.8,1h-7c.1,2.3,1.2,3.5,3.3,3.5s1.1,0,1.5-.3l1.3-.6h.4c0-.1.5-.3.5-.3ZM462.8,245.9c-.9,0-1.5.3-2,.9-.6.5-.9,1.3-1,2.3h5.8c0-1-.3-1.8-.8-2.3-.5-.6-1.1-.9-2-.9ZM482.8,244.3c2.5,0,3.7,1.5,3.7,4.4v6c0,.3-.1.5-.3.7-.2.2-.5.3-.8.3s-.6-.1-.9-.3c-.2-.2-.3-.5-.3-.8v-5.9c0-.9-.2-1.5-.5-2-.3-.4-.8-.6-1.5-.6s-1.5.3-2,.9c-.5.5-.7,1.3-.7,2.3v5.3c0,.3-.1.6-.3.8-.3.2-.6.3-.9.3s-.6-.1-.8-.3c-.2-.2-.3-.5-.3-.8v-5.9c0-.9-.2-1.5-.5-2-.3-.4-.9-.6-1.6-.6s-1.5.3-2,.9c-.5.5-.7,1.3-.7,2.3v5.3c0,.3-.1.6-.3.8-.2.2-.5.3-.8.3s-.6-.1-.9-.3c-.2-.2-.3-.5-.3-.8v-9.1c0-.3.1-.6.3-.8.3-.2.6-.3.9-.3s.5.1.7.3c.3.2.4.5.4.8v.8c.3-.7.8-1.1,1.3-1.4.7-.3,1.3-.5,2-.5s1.6.2,2.2.5c.5.3.9.9,1.2,1.6.3-.7.8-1.2,1.5-1.5.7-.4,1.4-.6,2.2-.6h0ZM494.5,255.8c-1.1,0-2.1-.3-3-.8-.8-.5-1.4-1.1-1.8-2-.5-.9-.7-1.9-.7-3s.2-2.1.7-3c.4-.9,1-1.5,1.9-2,.8-.5,1.8-.7,2.9-.7s2.1.2,2.8.7c.9.5,1.5,1.1,2,2,.4.9.6,1.9.6,3s-.2,2.1-.7,3c-.4.9-1,1.5-1.9,2-.8.5-1.7.8-2.8.8ZM494.5,253.9c1,0,1.8-.3,2.3-1s.8-1.6.8-2.9-.3-2.2-.8-2.9c-.6-.7-1.4-1-2.3-1s-1.7.3-2.4,1c-.5.7-.8,1.7-.8,3s.3,2.1.8,2.8,1.3,1,2.4,1h0ZM507.8,253.9c.3,0,.6.2.7.3s.2.3.2.6-.1.6-.3.7c-.3.2-.6.3-1,.2h-.7c-1.2-.1-2.1-.5-2.7-1.1s-1-1.7-1-3v-5.3h-1.3c-.7,0-1-.3-1-.9s.1-.5.3-.6c.2-.2.4-.3.7-.3h1.4v-2.3c0-.3,0-.6.3-.8.2-.2.5-.3.8-.3s.6,0,.9.3c.2.2.3.5.3.8v2.3h2.2c.3,0,.6,0,.7.3.2.1.3.3.3.6s0,.5-.3.7-.4.2-.7.2h-2.1v5.5c0,.7.1,1.2.4,1.6.3.3.8.4,1.4.5h.5ZM519,252.9c.3,0,.5,0,.6.2,0,.1.2.3.2.6s-.3.8-.8,1.1-1.1.6-1.8.7c-.7.2-1.3.3-1.8.3-1.7,0-3.1-.5-4.1-1.6-1-1-1.5-2.4-1.5-4.2s.2-2.1.6-3c.5-.9,1.1-1.5,1.9-2,.8-.5,1.7-.7,2.8-.7s2.6.5,3.5,1.4,1.3,2.2,1.3,3.8-.3,1-.9,1h-7c.2,2.3,1.3,3.5,3.4,3.5s1.1,0,1.5-.3l1.3-.6h.3c0-.1.5-.3.5-.3h0ZM515.1,245.9c-.9,0-1.6.3-2.1.9-.5.5-.9,1.3-1,2.3h5.9c0-1-.3-1.8-.8-2.3-.5-.6-1.1-.9-2-.9h0ZM537.4,239.5c.3,0,.6,0,.8.3.3.2.4.5.4.8v14c0,.3,0,.6-.4.8-.2.2-.5.3-.8.3s-.6,0-.8-.3c-.2-.2-.3-.5-.3-.8v-1c-.3.7-.8,1.2-1.5,1.6s-1.4.6-2.2.6-1.8-.3-2.5-.8-1.3-1.1-1.8-2c-.4-.9-.6-1.9-.6-3s.2-2.2.6-3c.5-.9,1.1-1.5,1.8-2s1.5-.7,2.5-.7,1.6.2,2.2.5c.7.3,1.2.8,1.5,1.5v-5.8c0-.3,0-.5.3-.7s.5-.3.8-.3h0ZM533.2,253.9c1,0,1.8-.3,2.3-1s.8-1.6.8-2.9-.3-2.2-.8-2.9-1.3-1-2.3-1-1.8.3-2.3,1c-.6.7-.9,1.6-.9,2.9s.3,2.2.9,2.9c.5.7,1.3,1,2.3,1ZM550.4,252.9c.2,0,.4,0,.5.2s.2.3.2.6-.3.8-.8,1.1-1.1.6-1.7.7c-.7.2-1.3.3-1.8.3-1.7,0-3.1-.5-4.2-1.6-1-1-1.5-2.4-1.5-4.2s.2-2.1.7-3,1.1-1.5,1.9-2,1.7-.7,2.7-.7c1.5,0,2.6.5,3.5,1.4s1.3,2.2,1.3,3.8-.3,1-.8,1h-7c0,2.3,1.3,3.5,3.4,3.5s1,0,1.4-.3c.5-.1.9-.3,1.3-.6h.4c0-.1.5-.3.5-.3h0ZM546.4,245.9c-.8,0-1.5.3-2,.9-.5.5-.9,1.3-1,2.3h5.9c0-1-.3-1.8-.8-2.3-.5-.6-1.1-.9-2-.9h-.1ZM557.6,255.8c-1.5,0-2.8-.3-3.8-1-.3-.1-.5-.3-.6-.5v-.6c0-.3,0-.5,0-.6,0-.2.3-.3.5-.3s.5.1,1,.4l1.2.6c.5.1,1,.2,1.7.2s1.2-.1,1.7-.4c.4-.3.6-.6.6-1s0-.6-.3-.8c0-.2-.4-.4-.8-.5l-1.7-.5c-1.3-.3-2.3-.6-3-1.1-.5-.5-.8-1.2-.8-2s.2-1.3.6-1.8.9-.9,1.6-1.2,1.4-.4,2.2-.4,1.3,0,1.8.2c.6.1,1.1.4,1.5.7.5.3.8.7.8,1.1s0,.5-.3.7c0,.1-.3.2-.5.2h-.4c0,0-.3-.1-.5-.4l-1.2-.5c-.3-.1-.8-.2-1.3-.2s-1.2.1-1.5.4c-.4.3-.6.6-.6,1s.2.8.5,1c.4.3,1.1.5,2,.7,1.1.2,1.9.5,2.4.8.6.3,1,.6,1.2,1,.3.4.4.9.4,1.5,0,1-.4,1.8-1.2,2.4s-1.9.9-3.3.9h0ZM574,253.8c.3.2.4.5.4.8s0,.6-.3.8-.4.3-.7.3-.6-.1-.8-.3l-5.6-5v4.2c0,.3,0,.6-.4.8-.2.2-.5.3-.8.3s-.6-.1-.8-.3-.3-.5-.3-.8v-14c0-.3,0-.6.3-.8s.5-.3.8-.3.6,0,.8.3c.3.2.4.5.4.8v8.9l5.1-4.8c.3-.3.5-.4.8-.4s.5,0,.7.3.3.5.3.8,0,.5-.3.8l-4,3.7,4.4,3.9h0ZM581.7,254c.3,0,.6,0,.7.2.2.1.3.3.3.6s0,.6-.4.7c-.2.2-.5.3-1,.2h-.6c-1.3-.1-2.2-.5-2.8-1.1-.6-.7-.9-1.7-.9-3v-5.3h-1.3c-.7,0-1-.3-1-.9s0-.5.2-.6c.2-.2.5-.3.8-.3h1.3v-2.3c0-.3,0-.6.3-.8s.5-.3.9-.3.6,0,.8.3c.2.2.3.5.3.8v2.3h2.3c.3,0,.5.1.7.3.2.1.3.3.3.6s0,.5-.3.7c-.2.1-.4.2-.7.2h-2.3v5.5c0,.7,0,1.2.4,1.6.3.3.8.4,1.4.5h.6ZM589.1,255.8c-1.1,0-2-.3-2.8-.8-.9-.5-1.5-1.1-2-2-.4-.9-.6-1.9-.6-3s.2-2.1.6-3c.5-.9,1.1-1.5,2-2,.8-.5,1.7-.7,2.8-.7s2,.2,2.9.7c.8.5,1.4,1.1,1.9,2s.7,1.9.7,3-.2,2.1-.7,3-1.1,1.5-2,2c-.7.5-1.7.8-2.8.8h0ZM589.1,253.9c1,0,1.8-.3,2.3-1,.6-.7.9-1.6.9-2.9s-.3-2.2-.9-2.9c-.5-.7-1.3-1-2.3-1s-1.8.3-2.3,1-.8,1.7-.8,3,.3,2.1.8,2.8,1.3,1,2.3,1h0ZM603.1,244.3c.9,0,1.8.2,2.5.7s1.3,1.1,1.7,2c.5.9.7,1.9.7,3s-.2,2.2-.6,3c-.4.8-1,1.5-1.8,2-.7.5-1.6.8-2.6.8s-1.5-.2-2.2-.6c-.6-.3-1.1-.8-1.4-1.5v5c0,.3,0,.6-.3.8-.2.2-.5.3-.8.3s-.6,0-.9-.3c-.2-.2-.3-.5-.3-.8v-13.3c0-.3,0-.6.3-.8s.5-.3.9-.3.6.1.8.3.3.5.3.8v1c.3-.7.8-1.2,1.4-1.6.7-.3,1.4-.5,2.2-.5h0ZM602.5,253.9c1,0,1.8-.3,2.3-1s.8-1.6.8-2.8-.3-2.3-.8-3-1.3-1-2.3-1-1.8.3-2.3,1-.8,1.7-.8,3,.3,2.1.8,2.8,1.3,1,2.3,1Z"/>
        </g>
        <image class="cls-3" width="128" height="128" transform="translate(444.4 67) scale(.8)" xlink:href="128x128.png"/>
      </g>
    </g>
  </g>
</svg>