<?xml version="1.0" encoding="UTF-8"?>
<svg xmlns="http://www.w3.org/2000/svg" version="1.1" xmlns:xlink="http://www.w3.org/1999/xlink" viewBox="0 0 113.7 26">
  <defs>
    <style>
      .cls-1 {
        fill: #35aca9;
      }
    </style>
  </defs>
  <!-- Generator: Adobe Illustrator 28.7.1, SVG Export Plug-In . SVG Version: 1.2.0 Build 142)  -->
  <g>
    <g id="_图层_1" data-name="图层_1">
      <path class="cls-1" d="M38.2,9.4c.7,0,1,.2,1,.9,0,.3,0,.5-.2.7-.2.2-.4.2-.8.3h-.6c-.9.1-1.6.5-2,1-.4.5-.6,1.2-.6,2v4.9c0,.3,0,.6-.3.8-.2.2-.5.3-.8.3-.3,0-.6,0-.8-.3-.2-.2-.3-.4-.3-.8v-8.7c0-.3,0-.6.3-.7.2-.2.5-.3.8-.3.3,0,.5,0,.7.3.2.2.3.4.3.7v1c.3-.6.7-1.1,1.2-1.4.5-.3,1.2-.5,1.8-.6h.3ZM48.6,9.4c.3,0,.6,0,.8.3.2.2.3.4.3.8v8.7c0,.3,0,.5-.3.7-.2.2-.5.3-.8.3-.3,0-.5,0-.7-.3-.2-.2-.3-.4-.3-.7v-.8c-.3.6-.8,1.1-1.4,1.4-.6.3-1.2.5-1.9.5-2.5,0-3.8-1.4-3.8-4.2v-5.5c0-.3,0-.6.3-.8.2-.2.5-.3.8-.3s.6,0,.8.3c.2.2.3.4.3.8v5.5c0,.8.2,1.5.5,1.9.3.4.9.6,1.6.6.8,0,1.5-.3,2-.8.5-.5.8-1.3.8-2.2v-5c0-.3,0-.6.3-.7.2-.2.5-.3.8-.3h0ZM56.3,20.1c-1.5,0-2.6-.3-3.6-.9-.3-.2-.4-.3-.6-.5-.1-.2-.2-.4-.2-.6s0-.4.2-.6c.1-.2.3-.2.5-.2s.5.1.9.3c.4.2.8.4,1.2.6.4.1.9.2,1.5.2s1.2-.1,1.6-.4c.4-.2.6-.6.6-1s0-.5-.2-.7c-.1-.2-.4-.3-.8-.4-.4-.1-.9-.3-1.6-.4-1.3-.3-2.2-.6-2.7-1.1-.5-.5-.8-1.1-.8-1.9,0-.6.2-1.2.5-1.6.4-.5.8-.9,1.5-1.2.6-.3,1.3-.4,2.1-.4s1.1,0,1.7.2c.5.1,1,.4,1.4.6.5.3.7.7.7,1.1s0,.4-.2.6c-.1.2-.3.2-.5.2s-.3,0-.4,0c-.1,0-.3-.1-.5-.3-.4-.2-.7-.4-1.1-.5-.3-.1-.7-.2-1.2-.2-.6,0-1.1.1-1.5.4-.4.3-.5.6-.5,1s.2.7.5.9c.3.2,1,.4,1.9.6,1,.2,1.7.4,2.2.7.5.3.9.6,1.2,1,.2.4.4.8.4,1.4,0,.9-.4,1.7-1.2,2.2-.8.6-1.8.8-3.1.8ZM67.9,18.4c.3,0,.5.1.7.3.1.1.2.3.2.6s-.1.5-.3.7c-.2.1-.5.2-1,.2h-.6c-1.2-.1-2-.5-2.6-1.1-.6-.6-.9-1.5-.9-2.8v-5h-1.3c-.6,0-.9-.3-.9-.8s0-.5.2-.6c.2-.2.4-.2.7-.2h1.3v-2.2c0-.3,0-.6.3-.8.2-.2.5-.3.8-.3s.6,0,.8.3c.2.2.3.4.3.8v2.2h2.1c.3,0,.5,0,.7.2.2.1.3.3.3.6s0,.5-.3.6c-.2.1-.4.2-.7.2h-2.1v5.2c0,.7.1,1.2.4,1.5.3.3.7.5,1.3.5h.6ZM78.9,4.8c.3,0,.6,0,.8.3.2.2.3.4.3.7v13.2c0,.3,0,.6-.3.8-.2.2-.4.3-.8.3s-.6,0-.8-.3c-.2-.2-.3-.4-.3-.8v-.9c-.3.6-.8,1.1-1.4,1.5-.6.3-1.3.5-2.1.5s-1.7-.2-2.4-.7c-.7-.5-1.2-1.1-1.6-1.9-.4-.8-.6-1.8-.6-2.8s.2-2,.6-2.8c.4-.8.9-1.4,1.6-1.9.7-.4,1.5-.7,2.4-.7.8,0,1.5.2,2,.5.6.3,1.1.8,1.4,1.4v-5.4c0-.3,0-.5.3-.7.2-.2.5-.3.8-.3h0ZM74.9,18.4c.9,0,1.6-.3,2.2-1,.5-.6.8-1.6.8-2.7s-.3-2.1-.8-2.7c-.5-.6-1.2-1-2.2-1s-1.7.3-2.2,1c-.5.6-.8,1.5-.8,2.7s.3,2.1.8,2.8c.5.7,1.3,1,2.2,1h0ZM91.1,17.4c.2,0,.4,0,.5.2.1.2.2.4.2.6,0,.4-.3.8-.8,1-.5.3-1,.5-1.6.7-.6.2-1.1.2-1.7.2-1.7,0-3-.5-3.9-1.4-1-1-1.4-2.3-1.4-3.9s.2-2,.6-2.8c.4-.8,1-1.5,1.8-1.9.8-.5,1.6-.7,2.6-.7,1.4,0,2.5.4,3.3,1.3s1.2,2.1,1.2,3.6-.3.9-.8.9h-6.6c.1,2.2,1.2,3.3,3.2,3.3s1,0,1.4-.2c.4-.1.8-.3,1.2-.6,0,0,.2,0,.3-.2.2-.1.4-.1.5-.2h0ZM87.4,10.9c-.8,0-1.5.3-2,.8-.5.5-.8,1.3-.9,2.2h5.5c0-1-.3-1.7-.7-2.2-.4-.5-1.1-.8-1.9-.8h0ZM97.9,20.1c-1.5,0-2.6-.3-3.6-.9-.3-.2-.4-.3-.6-.5,0-.2-.1-.4-.1-.6s0-.4.2-.6c.1-.2.3-.2.5-.2s.5.1.9.3c.4.2.8.4,1.2.6.4.1.9.2,1.5.2s1.2-.1,1.6-.4c.4-.2.6-.6.6-1s0-.5-.2-.7c-.1-.2-.4-.3-.8-.4-.4-.1-.9-.3-1.6-.4-1.3-.3-2.2-.6-2.7-1.1-.5-.5-.8-1.1-.8-1.9s.2-1.2.5-1.6c.4-.5.8-.9,1.5-1.2.6-.3,1.3-.4,2.1-.4s1.1,0,1.7.2c.5.1,1,.4,1.4.6.5.3.7.7.7,1.1s0,.4-.2.6c-.1.2-.3.2-.5.2s-.3,0-.4,0c-.1,0-.3-.1-.5-.3-.4-.2-.7-.4-1.1-.5-.3-.1-.7-.2-1.2-.2-.6,0-1.1.1-1.4.4-.4.3-.5.6-.5,1s.2.7.5.9c.3.2,1,.4,1.9.6,1,.2,1.7.4,2.2.7.5.3.9.6,1.2,1,.2.4.4.8.4,1.4,0,.9-.4,1.7-1.2,2.2-.8.6-1.8.8-3.1.8h0ZM113.3,18.3c.3.2.4.5.4.8,0,.3,0,.5-.3.7-.2.2-.4.3-.7.3s-.5,0-.7-.3l-5.3-4.7v3.9c0,.3,0,.6-.3.8-.2.2-.5.3-.8.3-.3,0-.6,0-.8-.3-.2-.2-.3-.4-.3-.8V5.9c0-.3,0-.6.3-.8.2-.2.5-.3.8-.3s.6,0,.8.3c.2.2.3.4.3.8v8.4l4.9-4.5c.2-.2.5-.3.7-.3.3,0,.5,0,.7.3.2.2.3.4.3.7s-.1.5-.4.7l-3.8,3.5,4.2,3.7Z"/>
      <image width="32" height="32" transform="translate(-.1 -3)" xlink:href="32x32.png"/>
    </g>
  </g>
</svg>